<svg width="398" height="356" viewBox="0 0 398 356" fill="none" xmlns="http://www.w3.org/2000/svg">
<path d="M256.803 281.331C255.382 280.825 253.852 280.552 252.281 280.565C246.064 280.606 240.818 284.774 239.192 290.484L206.265 290.389L187.998 290.334C186.454 290.334 185.197 291.577 185.184 293.121V297.808V301.92C185.17 303.218 186.222 304.284 187.52 304.284H187.93C189.228 304.284 190.294 303.232 190.294 301.947V297.835H193.272V301.947C193.258 303.245 194.31 304.297 195.608 304.311H196.155C197.453 304.311 198.518 303.273 198.518 301.975V297.862H201.524V301.838C201.524 303.068 202.385 304.202 203.615 304.325C205.035 304.475 206.224 303.382 206.224 301.988V297.876L239.165 297.985C239.657 299.734 240.476 301.333 241.569 302.726C244.07 305.923 247.963 307.986 252.335 308C260.123 308.027 266.408 301.565 266.08 293.682C265.834 287.984 261.981 283.134 256.817 281.344L256.803 281.331ZM260.97 297.234C260.41 297.603 259.741 297.808 259.03 297.808C257.104 297.808 255.532 296.223 255.532 294.283C255.532 292.343 257.117 290.771 259.044 290.771C259.768 290.771 260.437 291.004 261.011 291.386C261.94 292.015 262.555 293.094 262.541 294.31C262.541 295.54 261.913 296.605 260.956 297.234H260.97Z" fill="#E6F1D8"/>
<path d="M266.052 293.668C266.38 301.538 260.095 308 252.307 307.986C247.935 307.973 244.041 305.91 241.541 302.713C246.063 304.912 251.255 305.91 256.051 303.245C258.852 301.674 260.327 299.57 260.956 297.247C261.912 296.619 262.54 295.54 262.54 294.324C262.54 293.108 261.926 292.042 261.01 291.4C260.259 287.424 258.182 283.585 256.802 281.344C261.967 283.148 265.819 287.984 266.065 293.682L266.052 293.668Z" fill="#E6F1D8"/>
<path d="M397.173 52.1402C394.168 24.2138 371.283 2.17605 342.974 0.522875C341.84 0.454562 340.692 0.413574 339.545 0.413574C338.397 0.413574 337.236 0.454562 336.102 0.522875C319.392 1.49292 304.555 9.58117 294.608 21.8092C287.695 30.28 283.132 40.7182 281.916 52.1538C281.697 54.2032 281.574 56.2799 281.574 58.384V138.679C281.574 140.578 283.104 142.122 285.017 142.122H394.058C395.957 142.122 397.501 140.592 397.501 138.679V58.384C397.501 56.2936 397.392 54.2032 397.16 52.1538L397.173 52.1402ZM342.974 7.40882C357.525 8.37887 370.422 15.4561 379.125 26.1129C380.041 27.2332 380.915 28.3946 381.735 29.5969C382.554 30.7992 383.32 32.0152 384.044 33.2994C384.754 34.5564 385.424 35.868 386.038 37.1933C386.64 38.5186 387.2 39.8848 387.692 41.2647C388.429 43.3551 389.044 45.5001 389.509 47.6998C389.823 49.1617 390.083 50.6373 390.26 52.1538H342.974V7.40882ZM342.974 59.0261H390.643V92.2945H342.974V59.0261ZM294.718 33.9006C302.874 19.0084 318.245 8.59747 336.102 7.40882V52.1402H288.829C289.621 45.5958 291.671 39.4476 294.718 33.9006ZM288.46 59.0261H336.115V92.2945H288.46V59.0261ZM336.115 135.222H288.46V99.1668H336.115V135.222ZM390.643 135.222H342.974V99.1668H390.643V135.222Z" fill="#F1F8E9"/>
<path d="M390.641 99.1533H342.973V135.209H390.641V99.1533Z" fill="#E6F1D8"/>
<path d="M390.641 59.0259H342.973V92.2943H390.641V59.0259Z" fill="#E6F1D8"/>
<path d="M390.245 52.1405H342.973V7.40918C367.483 9.03503 387.321 28.026 390.245 52.1405Z" fill="#E6F1D8"/>
<path d="M336.114 99.1533H288.459V135.209H336.114V99.1533Z" fill="#E6F1D8"/>
<path d="M336.114 59.0259H288.459V92.2943H336.114V59.0259Z" fill="#E6F1D8"/>
<path d="M336.116 7.40918V52.1405H288.844C288.844 52.1405 288.844 52.0176 288.871 51.9766C289.404 47.7002 290.47 43.6014 292 39.7212C292.792 37.7128 293.708 35.7727 294.732 33.9009C298.995 26.1269 305.198 19.5689 312.712 14.9236C319.598 10.6472 327.577 7.96935 336.116 7.40918Z" fill="#E6F1D8"/>
<path d="M295.825 52.14H288.844C289.636 45.5956 291.686 39.4474 294.732 33.9004C294.869 39.5567 295.211 45.7595 295.825 52.14Z" fill="#E6F1D8"/>
<path d="M304.936 92.2943H288.459V59.0259H296.575C298.091 70.7894 300.646 82.6485 304.936 92.2943Z" fill="#E6F1D8"/>
<path d="M312.901 105.028C318.284 110.903 326.564 114.906 336.114 117.543V135.222H288.459V99.1665H308.516C309.855 101.325 311.317 103.293 312.901 105.041V105.028Z" fill="#E6F1D8"/>
<path d="M390.643 122.243V135.209H342.975V119.196C358.851 122.462 376.926 122.735 390.643 122.243Z" fill="#E6F1D8"/>
<g style="mix-blend-mode:screen" opacity="0.3">
<g style="mix-blend-mode:screen" opacity="0.6">
<path d="M374.767 52.1404L342.975 14.459V48.2329L346.513 52.1404H374.767Z" fill="#E6F1D8"/>
</g>
<g style="mix-blend-mode:screen" opacity="0.6">
<path d="M336.115 40.6771V7.40869C327.576 7.96886 319.597 10.6467 312.711 14.9231L336.115 40.6771Z" fill="#E6F1D8"/>
</g>
<g style="mix-blend-mode:screen" opacity="0.6">
<path d="M380.575 59.0259H352.771L383.007 92.2943H390.644V70.967L380.575 59.0259Z" fill="#E6F1D8"/>
</g>
</g>
<path d="M72.4279 355.587C111.967 355.587 144.02 351.354 144.02 346.132C144.02 340.911 111.967 336.678 72.4279 336.678C32.8888 336.678 0.835938 340.911 0.835938 346.132C0.835938 351.354 32.8888 355.587 72.4279 355.587Z" fill="#F1F8E9"/>
<path d="M365.488 347.608C379.719 347.608 391.256 345.809 391.256 343.591C391.256 341.373 379.719 339.574 365.488 339.574C351.257 339.574 339.721 341.373 339.721 343.591C339.721 345.809 351.257 347.608 365.488 347.608Z" fill="#F1F8E9"/>
<path d="M51.1426 253.937C39.6114 249.346 45.7322 320.255 49.3392 332.128C52.9461 344.001 52.6865 308.082 53.9025 287.847C55.1184 267.627 55.6786 255.727 51.1426 253.923V253.937Z" fill="#EED7BA"/>
<path d="M89.4379 252.024C78.016 247.557 81.418 318.588 84.6697 330.393C87.935 342.197 89.3696 320.583 91.1867 300.39C93.0039 280.196 93.9329 253.773 89.4379 252.024Z" fill="#EED7BA"/>
<path d="M92.1188 323.589L90.5203 338.741L84.4814 337.743L82.9648 321.266L92.1188 323.589Z" fill="#EED7BA"/>
<path d="M56.4313 323.739L54.7098 338.877L48.671 337.825L47.3184 321.334L56.4313 323.739Z" fill="#EED7BA"/>
<path d="M106.67 143.105C104.88 143.037 103.281 141.971 102.325 140.455C97.5839 132.968 80.6286 105.752 82.8146 102.541C85.3559 98.8247 111.602 136.957 110.686 139.17C109.976 140.892 109.552 143.214 106.67 143.119V143.105Z" fill="#E8CEB1"/>
<path d="M83.9887 106.667C83.9887 106.667 80.7233 105.506 80.8873 103.552C81.0512 101.599 77.1574 101.407 77.458 99.9455C77.7585 98.4836 82.1032 95.1909 84.8084 98.6202C87.5819 102.145 87.254 105.998 87.254 105.998L83.9887 106.654V106.667Z" fill="#E8CEB1"/>
<path d="M68.4128 202.661C63.9725 203.481 61.035 208.4 61.9914 213.332C62.7565 217.253 65.4754 226.612 68.0849 232.91C74.52 248.513 79.7118 263.323 86.0786 263.87C92.4453 264.416 94.2488 252.885 89.6172 236.845C85.4364 222.349 83.7286 203.44 79.138 202.087C76.8153 201.404 72.3067 201.951 68.4128 202.661Z" fill="#EED7BA"/>
<path d="M54.5176 201.213C50.2959 200.516 45.9512 204.123 45.0494 209.014C44.339 212.908 43.4236 222.513 43.4919 229.221C43.6558 245.848 42.9864 261.328 48.4378 263.924C53.8891 266.52 59.5591 256.382 61.1576 239.96C62.6059 225.109 67.7976 206.965 64.218 204.191C62.4009 202.784 58.2202 201.828 54.5176 201.213Z" fill="#EED7BA"/>
<path d="M62.2377 140.359C62.6749 142.45 64.451 143.98 66.5277 144.472C75.8593 146.658 109.169 153.475 111.3 146.712C113.8 138.761 83.6606 134.375 75.3264 134.143C68.3858 133.951 61.1857 135.318 62.2377 140.373V140.359Z" fill="#E8CEB1"/>
<path d="M70.8711 130.823C71.0487 130.864 97.6908 136.588 97.6908 136.588L88.4412 120.125L96.0922 115.029C96.0922 115.029 117.734 143.31 112.938 148.734C108.143 154.172 77.3062 148.967 77.3062 148.967L70.8711 130.809V130.823Z" fill="url(#paint0_linear_166_161)"/>
<path d="M58.9844 127.598L70.461 132.735L71.595 125.371C71.595 125.371 71.9912 125.645 72.6606 125.945C74.1635 126.628 77.0053 127.311 80.462 125.317C81.1724 124.893 81.7326 124.196 82.1425 123.267C82.8256 121.71 83.1535 119.619 83.2628 117.351C83.2628 117.146 83.2765 116.942 83.2628 116.75C83.4541 110.957 82.2654 104.522 82.2654 104.522C82.2928 104.495 82.3201 104.468 82.3611 104.468L82.2791 104.317C82.2791 104.317 80.339 103.074 77.2239 101.448C75.0652 100.328 74.9423 100.369 73.3711 100.355C70.174 100.314 70.2287 101.066 68.7668 101.448C67.3322 101.844 65.6107 103.607 62.7689 105.834C57.5088 109.946 60.7332 117.857 60.7332 117.857H60.5829C60.6649 117.966 60.7195 118.035 60.7195 118.035L58.9844 127.626V127.598Z" fill="#EED7BA"/>
<path d="M83.4407 201.445C83.4407 201.445 95.3955 245.63 95.8873 259.224C96.3792 272.819 91.9798 329.054 91.9798 329.054H83.1265C83.1265 329.054 77.9347 270.387 77.1969 265.045C76.4728 259.703 66.0346 237.87 66.0346 237.87L56.3068 330.762C56.3068 330.762 48.1639 331.254 47.795 330.885C47.4261 330.516 36.1818 204.998 49.2842 200.625" fill="url(#paint1_linear_166_161)"/>
<path d="M52.4257 205.243C53.423 205.284 54.4067 205.312 55.4041 205.312C64.3258 205.38 73.4661 206.132 82.0052 203.549C82.4834 203.399 82.9889 203.235 83.2895 202.852C83.6037 202.47 83.7403 201.937 83.6993 201.445C82.2101 185.474 83.1802 170.499 81.3357 155.607C80.7209 150.634 81.5133 138.502 70.8702 130.81L69.7089 130.468C68.4519 130.126 67.2086 129.689 66.0063 129.17C63.6017 128.145 61.3337 126.779 59.298 125.14C54.1062 127.585 49.1603 131.247 46.8103 136.493C45.7447 138.871 45.2801 141.412 45.1162 144.008C45.0342 145.306 45.0205 146.617 45.0479 147.929C44.7473 150.197 44.5697 152.424 44.4604 154.61C44.4194 155.348 44.3921 156.072 44.3784 156.796C44.2145 163.422 43.9139 170.049 43.9412 176.675C43.9685 183.67 44.597 190.283 45.0615 197.251C45.1708 198.959 45.3621 201.022 45.4304 202.743C45.4577 203.413 45.3484 205.107 46.3322 205.189C47.3159 205.257 51.442 205.216 52.4393 205.257L52.4257 205.243ZM74.5454 136.958C74.5454 136.958 74.5454 136.985 74.5454 136.999C74.5454 136.985 74.5454 136.971 74.5454 136.958Z" fill="url(#paint2_linear_166_161)"/>
<path d="M50.2823 134.58C48.2329 135.195 46.853 137.094 46.5387 139.198C45.1452 148.68 40.9781 180.527 47.8913 182.071C56.0206 183.888 58.029 155.415 57.5781 147.095C57.1956 140.154 55.2281 133.091 50.2823 134.566V134.58Z" fill="#EED7BA"/>
<path d="M91.6253 333.931C91.6253 333.931 93.8523 337.169 99.0714 341.473C104.291 345.777 105.725 344.957 105.793 346.487C105.848 348.017 83.4414 345.79 83.4414 345.79L83.8376 333.248C83.8376 333.248 91.6526 333.603 91.639 333.931H91.6253Z" fill="url(#paint3_linear_166_161)"/>
<path d="M55.6783 334.354C55.6783 334.354 58.0009 337.524 63.343 341.664C68.6851 345.803 70.106 344.943 70.2153 346.459C70.3246 347.989 47.8496 346.459 47.8496 346.459V333.917C47.8496 333.917 55.6646 334.026 55.6646 334.354H55.6783Z" fill="url(#paint4_linear_166_161)"/>
<path d="M46.9499 177.003C48.603 176.347 50.4885 176.675 51.9777 177.672C59.3009 182.563 85.697 200.502 85.0002 204.301C84.1941 208.714 44.9415 184.585 44.8732 182.208C44.8322 180.364 44.272 178.068 46.9362 177.003H46.9499Z" fill="#EED7BA"/>
<path d="M58.6026 154.05L56.0341 176.716L74.6152 192.496L68.3031 200.448C68.3031 200.448 46.4566 188.534 43.765 182.222C41.0735 175.91 39.9395 132.49 51.7167 133.378C62.5784 134.198 58.6163 154.063 58.6163 154.063L58.6026 154.05Z" fill="url(#paint5_linear_166_161)"/>
<path d="M82.9609 201.295C82.9609 201.295 86.4175 201.555 86.7727 203.481C87.128 205.407 90.9398 204.574 91.0218 206.063C91.1038 207.552 87.7838 211.87 84.2725 209.26C80.6792 206.582 79.9824 202.77 79.9824 202.77L82.9609 201.281V201.295Z" fill="#EED7BA"/>
<path d="M85.0538 97.6502C84.9036 96.0926 84.3024 94.5897 83.346 93.5787C81.2966 91.3927 78.7007 91.42 76.0365 92.3491C74.315 92.9502 72.5662 93.4967 70.7764 93.8246C67.2788 94.4941 63.0844 93.8793 60.2426 96.4752C59.6278 97.0353 59.1359 97.7321 58.767 98.4836C57.9063 100.26 57.9746 102.35 58.1522 104.263C58.4938 108.088 59.0129 111.887 59.4501 115.698C59.6824 117.721 59.9147 119.743 60.1469 121.765L62.0324 119.961L65.4617 116.723C66.0355 116.177 66.4317 115.494 66.623 114.728C66.8416 113.827 67.0739 112.734 67.0329 112.283C66.9099 111.026 66.4727 109.605 66.8689 108.266C67.2242 107.091 68.6451 106.08 69.6561 107.2C70.3256 107.952 70.8721 108.812 71.4596 109.632C71.9514 110.288 72.4569 111.244 73.3723 111.34C75.1621 111.531 74.6976 108.526 74.6293 107.528C74.3834 103.976 80.3266 104.55 82.3896 103.539C84.521 102.5 85.3134 100.014 85.0675 97.6502H85.0538Z" fill="#1D262D"/>
<path d="M370.082 329.751C370.082 327.291 368.306 325.16 368.593 322.673C369.153 317.837 374.973 316.99 377.952 314.189C381.75 310.637 377.186 306.866 375.451 303.614C372.118 297.329 378.457 292.616 381.422 287.847C382.884 285.497 383.362 282.697 381.6 280.388C380.616 279.103 379.168 278.297 377.87 277.341C374.618 274.936 374.085 270.988 377.214 268.187C382.146 263.774 389.046 260.372 388.431 252.571C388.376 251.833 388.226 251.068 387.775 250.48C387.228 249.77 386.299 249.442 385.411 249.414C381.026 249.278 375.957 253.664 371.79 250.589C366.379 246.6 355.695 234.782 348.577 244.332C345.899 247.925 346.623 252.762 348.823 256.369C351.282 260.399 353.578 264.73 353.414 269.621C353.263 274.376 352.403 276.548 348.563 279.349C345.271 281.754 341.363 282.273 340.448 286.754C338.877 294.446 354.11 291.741 353.263 298.996C352.771 303.231 350.135 306.005 348.782 309.844C348.55 310.5 348.399 311.224 348.577 311.907C348.837 312.877 349.725 313.533 350.544 314.107C355.272 317.427 363.305 321.362 362.527 328.316" fill="#E6F1D8"/>
<path d="M379.837 257.011C372.747 256.204 367.678 261.997 366.066 264.142C365.56 260.085 364.426 256.341 362.185 253.281C362.09 253.158 361.912 253.13 361.789 253.212C361.666 253.308 361.639 253.486 361.721 253.609C364.003 256.737 365.123 260.618 365.56 264.826C365.533 264.867 365.505 264.908 365.505 264.908C365.423 265.044 365.464 265.222 365.601 265.304C365.601 265.304 365.601 265.304 365.615 265.304C366.175 271.343 365.41 278.051 364.686 284.281C364.399 286.781 364.126 289.159 363.934 291.413C363.907 291.673 363.893 291.932 363.88 292.192C362.39 291.317 356.734 288.189 349.752 286.891C349.602 286.863 349.452 286.959 349.425 287.123C349.397 287.273 349.493 287.424 349.657 287.451C357.048 288.831 362.937 292.274 363.852 292.834C363.524 298.326 363.743 304.625 364.098 309.844C362.513 309.366 356.27 307.712 352.43 309.694C352.294 309.762 352.239 309.939 352.307 310.076C352.376 310.213 352.553 310.267 352.69 310.199C356.488 308.232 363.087 310.131 364.139 310.459C364.549 316.334 365.082 320.719 365.096 320.801C365.109 320.952 365.232 321.047 365.382 321.047C365.382 321.047 365.41 321.047 365.423 321.047C365.574 321.033 365.683 320.883 365.669 320.733C365.669 320.678 365.464 319.025 365.205 316.416C365.287 316.416 365.369 316.361 365.423 316.279C365.464 316.211 369.153 309.653 374.796 310.732C374.946 310.773 375.097 310.664 375.124 310.5C375.151 310.349 375.056 310.199 374.892 310.172C369.632 309.147 366.011 314.257 365.123 315.65C364.563 309.653 363.866 299.474 364.522 291.468C364.672 289.555 364.904 287.546 365.137 285.47C365.943 284.992 372.282 281.467 377.624 283.27C377.774 283.325 377.938 283.243 377.979 283.092C378.034 282.942 377.952 282.778 377.802 282.737C372.665 280.988 366.872 283.858 365.219 284.773C365.232 284.636 365.246 284.5 365.26 284.363C365.997 278.01 366.776 271.151 366.161 264.99C367.09 263.651 372.268 256.737 379.769 257.571C379.933 257.598 380.07 257.475 380.083 257.325C380.097 257.175 379.988 257.024 379.837 257.011Z" fill="white"/>
<path d="M357.306 344.287H373.51C374.548 344.287 375.422 343.481 375.518 342.443L377.581 321.211H353.234L355.297 342.443C355.379 343.481 356.254 344.287 357.306 344.287Z" fill="url(#paint6_linear_166_161)"/>
<path d="M352.62 325.337H378.182C378.665 325.337 379.057 324.946 379.057 324.463V322.086C379.057 321.603 378.665 321.211 378.182 321.211H352.62C352.137 321.211 351.745 321.603 351.745 322.086V324.463C351.745 324.946 352.137 325.337 352.62 325.337Z" fill="url(#paint7_linear_166_161)"/>
<path d="M315.101 115.712V257.215C315.101 262.762 310.62 267.244 305.086 267.244H146.122C140.602 267.244 136.107 262.762 136.107 257.215V115.712C136.107 110.192 140.589 105.697 146.122 105.697H305.086C310.606 105.697 315.101 110.179 315.101 115.712Z" fill="#E6F1D8"/>
<path d="M315.101 115.712V123.541H136.107V115.712C136.107 110.192 140.589 105.697 146.122 105.697H305.086C310.606 105.697 315.101 110.179 315.101 115.712Z" fill="url(#paint8_linear_166_161)"/>
<path d="M225.61 232.104C250.812 232.104 271.243 211.673 271.243 186.471C271.243 161.269 250.812 140.838 225.61 140.838C200.407 140.838 179.977 161.269 179.977 186.471C179.977 211.673 200.407 232.104 225.61 232.104Z" fill="white"/>
<path d="M225.597 159.719C217.441 159.719 210.801 166.372 210.801 174.543V190.077H240.421V174.543C240.421 166.372 233.768 159.719 225.597 159.719ZM235.489 185.145H215.733V174.543C215.733 169.078 220.16 164.651 225.597 164.651C231.035 164.651 235.489 169.078 235.489 174.543V185.145Z" fill="#1D262D"/>
<path d="M231.759 189.64H219.148V203.616H231.759V189.64Z" fill="#1D262D"/>
<path d="M244.67 178.642H206.524C205.253 178.642 204.215 179.694 204.215 180.964V210.872C204.215 212.142 205.253 213.194 206.524 213.194H244.67C245.968 213.194 246.992 212.142 246.992 210.872V180.964C246.992 179.694 245.954 178.642 244.67 178.642ZM229.135 198.712C229.135 200.802 227.318 202.456 225.173 202.21C223.643 202.018 222.372 200.83 222.127 199.327C221.867 197.756 222.632 196.348 223.862 195.638V193.069C223.862 192.113 224.64 191.334 225.597 191.334C226.553 191.334 227.359 192.113 227.359 193.069V195.638C228.411 196.253 229.135 197.4 229.135 198.712Z" fill="url(#paint9_linear_166_161)"/>
<path style="mix-blend-mode:multiply" opacity="0.3" d="M246.992 180.964V210.885C246.992 212.156 245.954 213.194 244.683 213.194H206.537C205.253 213.194 204.229 212.156 204.229 210.885V209.396C213.3 209.519 226.799 209.123 234.109 206.158C244.574 201.909 244.574 184.243 244.205 178.642H244.697C245.968 178.642 247.006 179.68 247.006 180.951L246.992 180.964Z" fill="url(#paint10_linear_166_161)"/>
<path d="M274.551 115.193C274.551 116.559 273.445 117.666 272.078 117.666C270.712 117.666 269.605 116.559 269.605 115.193C269.605 113.827 270.712 112.72 272.078 112.72C273.445 112.72 274.551 113.827 274.551 115.193Z" fill="white"/>
<path d="M287.969 115.193C287.969 116.559 286.863 117.666 285.496 117.666C284.13 117.666 283.023 116.559 283.023 115.193C283.023 113.827 284.13 112.72 285.496 112.72C286.863 112.72 287.969 113.827 287.969 115.193Z" fill="white"/>
<path d="M301.385 115.193C301.385 116.559 300.279 117.666 298.912 117.666C297.546 117.666 296.439 116.559 296.439 115.193C296.439 113.827 297.546 112.72 298.912 112.72C300.279 112.72 301.385 113.827 301.385 115.193Z" fill="white"/>
<path d="M356.323 186.198C359.153 180.176 365.489 178.032 372.231 181.268C378.874 184.457 381.506 190.539 378.413 196.984C375.057 203.974 368.624 204.668 361.981 201.48L359.903 205.301L354.995 202.945L358.483 195.043L360.119 195.828C365.721 198.517 370.51 199.596 373.009 194.39C374.674 190.92 373.566 187.765 369.996 186.051C366.476 184.362 363.294 185.274 361.628 188.745L356.323 186.198ZM357.422 213.138C356.447 215.171 354.099 215.996 352.116 215.044C350.083 214.068 349.258 211.721 350.234 209.688C351.209 207.655 353.557 206.83 355.59 207.806C357.573 208.758 358.398 211.106 357.422 213.138Z" fill="#E6F1D8"/>
<path d="M239.158 54.3587C239.126 50.4175 241.96 47.6489 246.389 47.6489C250.754 47.6489 253.718 50.2221 253.718 54.4564C253.718 59.049 250.461 61.0684 246.096 61.0684L245.966 63.6416H242.741L242.579 58.5279H243.653C247.334 58.5279 250.168 57.8764 250.168 54.4564C250.168 52.1764 248.767 50.7758 246.422 50.7758C244.109 50.7758 242.644 52.0787 242.644 54.3587H239.158ZM246.65 68.4622C246.65 69.7976 245.608 70.8399 244.305 70.8399C242.969 70.8399 241.927 69.7976 241.927 68.4622C241.927 67.1268 242.969 66.0845 244.305 66.0845C245.608 66.0845 246.65 67.1268 246.65 68.4622Z" fill="#E6F1D8"/>
<path d="M202.693 83.6196C200.972 80.9112 201.736 77.7775 204.796 75.8685C207.811 73.9875 210.967 74.4875 212.792 77.4124C214.771 80.5848 213.392 83.3835 210.377 85.2645L211.396 87.0981L209.168 88.4878L206.852 85.0256L207.594 84.5624C210.137 82.9761 211.813 81.3049 210.34 78.9425C209.357 77.3675 207.786 77.0037 206.166 78.0144C204.568 79.011 204.117 80.5427 205.1 82.1176L202.693 83.6196ZM213.946 90.1332C214.521 91.0557 214.25 92.2248 213.35 92.7863C212.428 93.3619 211.259 93.0911 210.683 92.1686C210.108 91.2461 210.378 90.077 211.301 89.5014C212.201 88.94 213.37 89.2107 213.946 90.1332Z" fill="#E6F1D8"/>
<path d="M142.38 33.081C118.197 33.081 98.5913 42.7815 98.5913 54.7636C98.5913 58.2475 100.258 61.5402 103.209 64.4504C98.6869 68.5628 89.2597 77.1566 89.1914 77.1566L112.213 70.4619C120.069 74.1645 130.685 76.4325 142.38 76.4325C166.563 76.4325 186.169 66.732 186.169 54.7499C186.169 42.7678 166.563 33.0674 142.38 33.0674V33.081Z" fill="url(#paint11_linear_166_161)"/>
<path d="M136.108 49.8021C136.072 45.5187 139.152 42.5098 143.966 42.5098C148.71 42.5098 151.931 45.3063 151.931 49.9083C151.931 54.8997 148.391 57.0945 143.648 57.0945L143.506 59.8911H140.002L139.825 54.3333H140.993C144.993 54.3333 148.073 53.6253 148.073 49.9083C148.073 47.4303 146.551 45.9081 144.002 45.9081C141.488 45.9081 139.896 47.3241 139.896 49.8021H136.108ZM144.25 65.1302C144.25 66.5816 143.117 67.7144 141.701 67.7144C140.249 67.7144 139.117 66.5816 139.117 65.1302C139.117 63.6788 140.249 62.546 141.701 62.546C143.117 62.546 144.25 63.6788 144.25 65.1302Z" fill="white"/>
<defs>
<linearGradient id="paint0_linear_166_161" x1="70.8711" y1="133.118" x2="113.621" y2="133.118" gradientUnits="userSpaceOnUse">
<stop stop-color="#74BC1F"/>
<stop offset="1" stop-color="#357167"/>
</linearGradient>
<linearGradient id="paint1_linear_166_161" x1="42.9721" y1="265.823" x2="95.9283" y2="265.823" gradientUnits="userSpaceOnUse">
<stop offset="0.06" stop-color="#F2A622"/>
<stop offset="1" stop-color="#E35802"/>
</linearGradient>
<linearGradient id="paint2_linear_166_161" x1="47.3022" y1="165.308" x2="85.3935" y2="165.308" gradientUnits="userSpaceOnUse">
<stop stop-color="#74BC1F"/>
<stop offset="1" stop-color="#357167"/>
</linearGradient>
<linearGradient id="paint3_linear_166_161" x1="93.7483" y1="337.858" x2="94.8218" y2="348.283" gradientUnits="userSpaceOnUse">
<stop stop-color="#2B2B2B"/>
<stop offset="1"/>
</linearGradient>
<linearGradient id="paint4_linear_166_161" x1="59.0393" y1="337.797" x2="59.0393" y2="345.489" gradientUnits="userSpaceOnUse">
<stop stop-color="#232323"/>
<stop offset="1"/>
</linearGradient>
<linearGradient id="paint5_linear_166_161" x1="74.6152" y1="208.02" x2="41.9922" y2="146.278" gradientUnits="userSpaceOnUse">
<stop stop-color="#74BC1F"/>
<stop offset="1" stop-color="#357167"/>
</linearGradient>
<linearGradient id="paint6_linear_166_161" x1="353.234" y1="332.742" x2="377.581" y2="332.742" gradientUnits="userSpaceOnUse">
<stop stop-color="#74BC1F"/>
<stop offset="1" stop-color="#357167"/>
</linearGradient>
<linearGradient id="paint7_linear_166_161" x1="351.759" y1="323.274" x2="379.07" y2="323.274" gradientUnits="userSpaceOnUse">
<stop stop-color="#74BC1F"/>
<stop offset="1" stop-color="#357167"/>
</linearGradient>
<linearGradient id="paint8_linear_166_161" x1="136.107" y1="114.619" x2="315.101" y2="114.619" gradientUnits="userSpaceOnUse">
<stop stop-color="#74BC1F"/>
<stop offset="1" stop-color="#357167"/>
</linearGradient>
<linearGradient id="paint9_linear_166_161" x1="204.215" y1="195.925" x2="247.006" y2="195.925" gradientUnits="userSpaceOnUse">
<stop stop-color="#74BC1F"/>
<stop offset="1" stop-color="#357167"/>
</linearGradient>
<linearGradient id="paint10_linear_166_161" x1="204.215" y1="195.938" x2="246.992" y2="195.938" gradientUnits="userSpaceOnUse">
<stop stop-color="#008BEC"/>
<stop offset="1" stop-color="#0077EC"/>
</linearGradient>
<linearGradient id="paint11_linear_166_161" x1="89.1914" y1="55.1188" x2="186.169" y2="55.1188" gradientUnits="userSpaceOnUse">
<stop stop-color="#74BC1F"/>
<stop offset="1" stop-color="#357167"/>
</linearGradient>
</defs>
</svg>
