<svg width="668" height="517" viewBox="0 0 668 517" fill="none" xmlns="http://www.w3.org/2000/svg">
<path d="M665.952 258.397C675.578 337.795 629.635 411.391 561.033 457.479C492.045 504.32 408.514 524.631 323.809 514.419C239.08 504.515 157.651 474.552 93.7439 441.939C30.1792 408.517 -9.82685 364.355 2.0992 296.645C13.2188 229.411 70.6006 153.779 134.508 98.0382C199.979 41.7672 267.722 5.63907 336.688 0.645268C405.557 -4.37641 472.738 20.174 537.208 65.1461C599.967 110.146 657.25 178.524 665.973 258.369L665.952 258.397Z" fill="white"/>
<path d="M199.896 396.5H151.313C148.091 396.5 145.002 395.22 142.724 392.943C140.446 390.665 139.167 387.575 139.167 384.354C139.167 381.133 140.446 378.044 142.724 375.766C145.002 373.488 148.091 372.208 151.313 372.208H199.896C203.117 372.208 206.206 373.488 208.484 375.766C210.762 378.044 212.042 381.133 212.042 384.354C212.042 387.575 210.762 390.665 208.484 392.943C206.206 395.22 203.117 396.5 199.896 396.5ZM594.635 396.5H564.271C561.05 396.5 557.96 395.22 555.682 392.943C553.405 390.665 552.125 387.575 552.125 384.354C552.125 381.133 553.405 378.044 555.682 375.766C557.96 373.488 561.05 372.208 564.271 372.208H584.554L600.927 284.953C600.708 240.305 562.57 202.167 515.688 202.167H435.938L397.29 372.208H467.104C470.325 372.208 473.415 373.488 475.693 375.766C477.97 378.044 479.25 381.133 479.25 384.354C479.25 387.575 477.97 390.665 475.693 392.943C473.415 395.22 470.325 396.5 467.104 396.5H382.083C380.261 396.501 378.461 396.092 376.819 395.303C375.176 394.513 373.732 393.365 372.593 391.942C371.454 390.518 370.651 388.857 370.242 387.081C369.832 385.305 369.828 383.46 370.229 381.682L414.391 187.349C414.998 184.658 416.502 182.255 418.657 180.533C420.811 178.811 423.488 177.874 426.246 177.875H515.688C575.955 177.875 625 226.92 625 287.187L606.563 386.589C606.046 389.374 604.57 391.891 602.391 393.701C600.212 395.512 597.468 396.502 594.635 396.5Z" fill="#7ED321"/>
<path d="M515.688 445.083C482.214 445.083 454.958 417.852 454.958 384.354C454.958 350.856 482.214 323.625 515.688 323.625C549.161 323.625 576.417 350.856 576.417 384.354C576.417 417.852 549.161 445.083 515.688 445.083ZM515.688 347.917C495.598 347.917 479.25 364.265 479.25 384.354C479.25 404.443 495.598 420.792 515.688 420.792C535.777 420.792 552.125 404.443 552.125 384.354C552.125 364.265 535.777 347.917 515.688 347.917ZM248.479 445.083C215.005 445.083 187.75 417.852 187.75 384.354C187.75 350.856 215.005 323.625 248.479 323.625C281.953 323.625 309.208 350.856 309.208 384.354C309.208 417.852 281.953 445.083 248.479 445.083ZM248.479 347.917C228.39 347.917 212.042 364.265 212.042 384.354C212.042 404.443 228.39 420.792 248.479 420.792C268.568 420.792 284.917 404.443 284.917 384.354C284.917 364.265 268.568 347.917 248.479 347.917ZM199.896 177.875H102.729C99.5079 177.875 96.4186 176.595 94.1408 174.318C91.863 172.04 90.5833 168.95 90.5833 165.729C90.5833 162.508 91.863 159.419 94.1408 157.141C96.4186 154.863 99.5079 153.583 102.729 153.583H199.896C203.117 153.583 206.206 154.863 208.484 157.141C210.762 159.419 212.042 162.508 212.042 165.729C212.042 168.95 210.762 172.04 208.484 174.318C206.206 176.595 203.117 177.875 199.896 177.875ZM199.896 250.75H78.4375C75.2162 250.75 72.1269 249.47 69.8491 247.193C67.5713 244.915 66.2917 241.825 66.2917 238.604C66.2917 235.383 67.5713 232.294 69.8491 230.016C72.1269 227.738 75.2162 226.458 78.4375 226.458H199.896C203.117 226.458 206.206 227.738 208.484 230.016C210.762 232.294 212.042 235.383 212.042 238.604C212.042 241.825 210.762 244.915 208.484 247.193C206.206 249.47 203.117 250.75 199.896 250.75ZM199.896 323.625H54.1458C50.9246 323.625 47.8352 322.345 45.5574 320.068C43.2796 317.79 42 314.7 42 311.479C42 308.258 43.2796 305.169 45.5574 302.891C47.8352 300.613 50.9246 299.333 54.1458 299.333H199.896C203.117 299.333 206.206 300.613 208.484 302.891C210.762 305.169 212.042 308.258 212.042 311.479C212.042 314.7 210.762 317.79 208.484 320.068C206.206 322.345 203.117 323.625 199.896 323.625Z" fill="#7ED321"/>
<path d="M382.083 396.5H297.063C293.841 396.5 290.752 395.22 288.474 392.943C286.196 390.665 284.917 387.575 284.917 384.354C284.917 381.133 286.196 378.044 288.474 375.766C290.752 373.488 293.841 372.208 297.063 372.208H372.391L427.582 129.292H151.313C148.091 129.292 145.002 128.012 142.724 125.734C140.446 123.456 139.167 120.367 139.167 117.146C139.167 113.925 140.446 110.835 142.724 108.557C145.002 106.28 148.091 105 151.313 105H442.812C444.635 104.999 446.434 105.408 448.077 106.197C449.72 106.987 451.164 108.135 452.303 109.558C453.441 110.982 454.245 112.643 454.654 114.419C455.064 116.195 455.068 118.04 454.667 119.818L393.938 387.026C393.331 389.717 391.827 392.12 389.672 393.842C387.518 395.564 384.841 396.501 382.083 396.5Z" fill="#7ED321"/>
</svg>
