<svg width="668" height="517" viewBox="0 0 668 517" fill="none" xmlns="http://www.w3.org/2000/svg">
<path d="M665.952 258.397C675.578 337.795 629.635 411.391 561.033 457.479C492.045 504.32 408.514 524.631 323.809 514.419C239.08 504.515 157.651 474.552 93.7439 441.939C30.1792 408.517 -9.82685 364.355 2.0992 296.645C13.2188 229.411 70.6006 153.779 134.508 98.0382C199.979 41.7672 267.722 5.63907 336.688 0.645268C405.557 -4.37641 472.738 20.174 537.208 65.1461C599.967 110.146 657.25 178.524 665.973 258.369L665.952 258.397Z" fill="white"/>
<path d="M593.344 193.547H388.156C383.759 193.547 380.828 196.478 380.828 200.875V249.973L362.508 245.577L342.722 225.791C364.706 205.272 366.172 162.036 366.172 149.578C393.286 149.578 412.339 142.25 419.667 129.059C422.598 123.197 424.797 113.67 416.736 101.212C408.675 89.4875 398.416 83.625 384.492 83.625H358.111C355.912 70.4344 347.119 42.5875 312.677 34.5266C305.348 33.0609 295.089 32.3281 292.891 32.3281C216.678 32.3281 204.953 68.9688 204.953 90.9531V127.594C204.953 132.723 207.152 138.586 211.548 142.983C207.884 147.38 204.953 154.708 204.953 164.234C204.953 182.555 217.411 190.616 228.403 192.814C232.067 203.806 237.197 211.867 242.327 218.462L215.212 245.577C209.35 252.172 216.678 258.767 216.678 258.767L185.167 290.278C182.236 293.942 153.656 323.255 153.656 347.438C153.656 348.903 153.656 349.636 154.389 350.369L191.03 423.65C191.762 425.848 193.961 426.581 195.427 427.314C196.159 427.314 202.755 429.513 212.281 429.513C212.281 430.245 211.548 471.283 211.548 471.283C211.548 475.68 214.48 478.611 218.877 478.611C223.273 478.611 226.205 475.68 226.205 471.283V450.764C237.197 463.955 254.784 478.611 277.502 478.611C300.219 478.611 341.989 463.955 378.63 450.764C385.225 448.566 391.088 446.367 396.95 444.169C398.416 443.436 399.881 443.436 402.08 442.703V472.016C402.08 476.413 405.011 479.344 409.408 479.344C413.805 479.344 416.736 476.413 416.736 472.016V439.039C429.927 436.108 442.384 434.642 453.377 435.375H504.673C517.131 435.375 533.986 430.978 539.116 417.787C540.581 414.123 541.314 410.459 541.314 406.062H592.611C597.008 406.062 599.939 403.131 599.939 398.734V200.875C600.672 196.478 597.741 193.547 593.344 193.547ZM512.734 208.203V247.775L493.681 238.248C492.948 237.516 492.216 237.516 490.75 237.516C489.284 237.516 488.552 237.516 487.819 238.248L468.766 247.775V208.203H512.734ZM298.753 248.508C298.02 247.042 294.356 244.844 294.356 244.844C303.15 244.844 310.478 243.378 317.806 241.18L314.875 249.973L307.547 269.027C307.547 269.027 299.486 248.508 298.753 248.508ZM334.661 238.248L350.05 253.638L342.722 267.561L330.264 250.706L334.661 238.248ZM347.852 98.2812C341.256 103.411 335.394 110.006 330.997 115.869C318.539 134.189 307.547 134.922 307.547 134.922H268.708C271.639 131.991 274.57 128.327 276.769 124.663C285.562 111.472 301.684 98.2812 314.875 98.2812H347.852ZM404.278 110.006C407.942 115.136 408.675 119.533 406.477 122.464C403.545 128.327 391.088 134.922 366.172 134.922H365.439C363.973 121.731 361.775 112.205 360.309 107.075C368.37 101.945 376.431 98.2812 384.492 98.2812C392.553 98.2812 399.148 101.945 404.278 110.006ZM219.609 90.9531C219.609 64.5719 240.861 53.5797 265.044 49.1828C252.586 62.3734 248.922 79.2281 248.922 90.9531C248.922 95.35 251.853 98.2812 256.25 98.2812C259.914 98.2812 263.578 95.35 263.578 90.9531C263.578 86.5562 265.044 51.3812 300.952 47.7172C332.463 50.6484 341.256 72.6328 343.455 83.625H314.875C295.089 83.625 275.303 99.7469 265.044 115.869C252.586 134.189 241.594 134.922 241.594 134.922H226.938C221.075 134.922 219.609 131.258 219.609 127.594V90.9531ZM234.266 178.891C232.067 178.891 219.609 178.158 219.609 164.234C219.609 151.044 225.472 149.578 226.938 149.578H307.547C309.745 149.578 326.6 148.845 342.722 124.663C344.187 122.464 345.653 120.266 347.852 118.067C349.317 124.662 351.516 135.655 351.516 150.311C351.516 151.044 354.447 191.348 333.195 214.798C323.669 225.058 309.745 230.188 292.891 230.188C292.158 230.188 254.052 229.455 241.594 184.02C240.128 181.089 237.197 178.891 234.266 178.891ZM249.655 232.386L281.898 253.638L262.112 278.553L229.869 252.172L249.655 232.386ZM168.312 345.972C169.778 330.583 188.098 308.598 195.427 301.27L227.67 269.027L258.448 294.675C259.914 296.141 261.38 296.141 262.845 296.141H263.578C265.777 296.141 267.242 294.675 268.708 293.209L289.959 266.095L300.219 291.011C301.684 293.942 303.883 295.408 306.814 295.408C309.745 295.408 312.677 293.942 313.409 291.011L322.936 266.828L336.859 285.881C338.325 288.08 340.523 288.812 343.455 288.812C345.653 288.812 347.852 287.347 349.317 285.148L361.042 260.966L379.362 265.362V381.88C368.37 385.544 355.18 389.941 341.256 394.338C330.264 398.002 319.272 401.666 309.013 405.33C296.555 409.727 281.898 404.597 275.303 392.872L246.723 343.773C244.525 340.109 240.128 339.377 236.464 341.575C232.8 343.773 232.067 348.17 234.266 351.834L254.784 385.544C243.059 419.986 211.548 417.055 202.022 414.856L168.312 345.972ZM525.925 411.925C523.727 417.787 513.467 420.719 505.406 420.719H454.842C430.659 419.253 405.744 426.581 393.286 430.978C387.423 433.177 380.828 435.375 374.966 437.573C340.523 449.298 298.753 464.688 278.234 464.688C252.586 464.688 234.266 438.306 228.403 428.78C240.861 425.848 254.784 419.253 265.044 401.666C273.105 414.123 287.028 421.452 301.684 421.452C306.081 421.452 310.478 420.719 314.875 419.253C324.402 416.322 335.394 412.658 347.119 408.261C379.362 397.269 418.934 384.078 429.194 384.078H480.491C482.689 384.078 487.086 385.544 487.819 391.406H468.766C464.369 391.406 461.438 394.337 461.438 398.734C461.438 403.131 464.369 406.062 468.766 406.062C468.766 406.062 524.459 406.795 527.391 406.795C527.391 408.261 526.658 410.459 525.925 411.925ZM586.016 391.406H502.475C501.742 375.284 489.284 369.422 480.491 369.422H429.194C422.598 369.422 411.606 372.353 395.484 376.75V208.203H454.109V259.5C454.109 261.698 455.575 264.63 457.773 266.095C459.972 267.561 462.903 267.561 465.102 266.095L491.483 252.905L517.864 266.095C517.864 266.828 518.597 266.828 520.062 266.828C521.528 266.828 522.994 266.828 523.727 266.095C525.925 264.63 527.391 262.431 527.391 259.5V208.203H586.016V391.406Z" fill="#7ED321" stroke="#7ED321" stroke-width="5"/>
<path d="M454.109 340.109H424.797C420.4 340.109 417.469 343.041 417.469 347.438C417.469 351.834 420.4 354.766 424.797 354.766H454.109C458.506 354.766 461.438 351.834 461.438 347.438C461.438 343.041 458.506 340.109 454.109 340.109ZM424.797 332.781H439.453C443.85 332.781 446.781 329.85 446.781 325.453C446.781 321.056 443.85 318.125 439.453 318.125H424.797C420.4 318.125 417.469 321.056 417.469 325.453C417.469 329.85 420.4 332.781 424.797 332.781Z" fill="#7ED321" stroke="#7ED321" stroke-width="5"/>
</svg>
